<svg width="48" height="47" viewBox="0 0 48 47" fill="none" xmlns="http://www.w3.org/2000/svg">
    <ellipse cx="24.0938" cy="23.2332" rx="23.2453" ry="23.2332" fill="#DACBCB"/>
    <path d="M24.0938 27.5356C26.4712 27.5356 28.3984 25.6093 28.3984 23.2331C28.3984 20.8569 26.4712 18.9307 24.0938 18.9307C21.7163 18.9307 19.7891 20.8569 19.7891 23.2331C19.7891 25.6093 21.7163 27.5356 24.0938 27.5356Z" stroke="#0B1035" stroke-opacity="0.75" stroke-width="2" stroke-miterlimit="10"/>
    <path d="M28.8289 13.3375H19.3586C16.5057 13.3375 14.193 15.649 14.193 18.5005V27.9658C14.193 30.8173 16.5057 33.1288 19.3586 33.1288H28.8289C31.6818 33.1288 33.9946 30.8173 33.9946 27.9658V18.5005C33.9946 15.649 31.6818 13.3375 28.8289 13.3375Z" stroke="#0B1035" stroke-opacity="0.75" stroke-width="2" stroke-linecap="round" stroke-linejoin="round"/>
    <path d="M29.6898 18.9307C30.4031 18.9307 30.9813 18.3528 30.9813 17.64C30.9813 16.9271 30.4031 16.3492 29.6898 16.3492C28.9766 16.3492 28.3984 16.9271 28.3984 17.64C28.3984 18.3528 28.9766 18.9307 29.6898 18.9307Z" fill="black"/>
</svg>
