<svg width="48" height="47" viewBox="0 0 48 47" fill="none" xmlns="http://www.w3.org/2000/svg">
    <ellipse cx="23.9422" cy="23.2332" rx="23.2453" ry="23.2332" fill="#DACBCB"/>
    <path d="M24.8031 18.9311C24.8032 17.9425 25.1438 16.9842 25.7677 16.2171C26.3916 15.45 27.2607 14.9211 28.2288 14.7191C29.197 14.5171 30.2053 14.6545 31.084 15.108C31.9628 15.5616 32.6586 16.3038 33.0543 17.2097L36.8562 17.2098L33.3843 20.68C33.1582 24.1703 31.6115 27.4438 29.0584 29.8358C26.5052 32.2278 23.137 33.559 19.6375 33.5591C16.1937 33.5591 15.3328 32.2683 15.3328 32.2683C15.3328 32.2683 18.7766 30.9776 20.4984 28.3961C20.4984 28.3961 13.6109 24.9542 15.3328 15.4888C15.3328 15.4888 19.6375 19.7912 24.8016 20.6517L24.8031 18.9311Z" stroke="#0B1035" stroke-opacity="0.75" stroke-width="2" stroke-linecap="round" stroke-linejoin="round"/>
</svg>
