<svg width="48" height="47" viewBox="0 0 48 47" fill="none" xmlns="http://www.w3.org/2000/svg">
    <ellipse cx="23.7906" cy="23.2332" rx="23.2453" ry="23.2332" fill="#DACBCB"/>
    <path d="M27.2344 23.2332L22.0687 19.7913V26.6752L27.2344 23.2332Z" stroke="#0B1035" stroke-opacity="0.75" stroke-width="2" stroke-linecap="round" stroke-linejoin="round"/>
    <path d="M12.5984 23.2332C12.5984 26.4337 12.9293 28.3115 13.1808 29.2767C13.248 29.5403 13.3771 29.784 13.5574 29.9878C13.7377 30.1916 13.9639 30.3495 14.2174 30.4485C17.8201 31.8322 23.7906 31.7942 23.7906 31.7942C23.7906 31.7942 29.7611 31.8322 33.3638 30.4485C33.6173 30.3495 33.8436 30.1916 34.0239 29.9878C34.2041 29.7841 34.3332 29.5403 34.4005 29.2767C34.652 28.3116 34.9828 26.4337 34.9828 23.2332C34.9828 20.0326 34.652 18.1548 34.4005 17.1897C34.3333 16.9261 34.2042 16.6823 34.0239 16.4785C33.8436 16.2747 33.6173 16.1168 33.3638 16.0179C29.7611 14.6341 23.7906 14.6721 23.7906 14.6721C23.7906 14.6721 17.8202 14.6341 14.2175 16.0178C13.964 16.1168 13.7377 16.2747 13.5574 16.4785C13.3771 16.6823 13.248 16.9261 13.1808 17.1896C12.9293 18.1548 12.5984 20.0326 12.5984 23.2332Z" stroke="#0B1035" stroke-opacity="0.75" stroke-width="2" stroke-linecap="round" stroke-linejoin="round"/>
</svg>
