<svg width="68" height="94" viewBox="0 0 68 94" fill="none" xmlns="http://www.w3.org/2000/svg">
    <path d="M26.4988 0V12.692C20.0377 14.142 14.6095 16.88 10.2345 20.92C3.40881 27.22 0 35.86 0 46.84C0 57.7 3.34805 66.3 10.0522 72.64C14.488 76.82 19.9769 79.64 26.4988 81.06V94H39.4616V82.12C43.8163 82 48.0292 81.48 52.1611 80.54C56.9209 79.48 63.5643 77.9 68 75.76L64.7593 43H42.2972L35.0056 54.76H49.1027L50.723 68C47.4418 69.24 43.3707 69.42 39.6641 69.42C32.8789 69.42 27.633 67.46 23.9265 63.52C20.2199 59.6 18.3768 54.04 18.3768 46.84C18.3768 39.56 20.2807 33.98 24.1088 30.08C27.9571 26.16 33.4258 24.2 40.4946 24.2C44.3226 24.2 48.1305 24.74 51.918 25.8C55.7461 26.86 58.764 28.48 62.6123 30.64L60.992 16.14C57.2652 14.47 55.7259 13.608 51.4927 12.752C47.6646 11.964 43.6542 11.54 39.4616 11.476V0H26.4988Z" fill="#F78F1E"/>
</svg>
