<svg width="91" height="80" viewBox="0 0 91 80" fill="none" xmlns="http://www.w3.org/2000/svg">
    <path d="M7.29055 33.9642C7.76417 34.1537 8.31345 34.1537 8.78708 33.9264L23.5814 27.2017C24.5285 26.7471 24.9263 25.6105 24.4717 24.6634C24.036 23.7542 22.9563 23.3374 22.028 23.7542L11.6663 28.4709C16.6104 13.6766 30.3818 3.78849 46.2368 3.78849C62.8497 3.78849 77.3787 14.889 81.565 30.7819C81.8301 31.7858 82.872 32.3921 83.8759 32.1267C84.8798 31.8616 85.4861 30.8197 85.2208 29.8158C80.5987 12.2749 64.5732 0 46.2367 0C28.7526 0 13.5415 10.911 8.04814 27.2397L3.69137 16.3477C3.3694 15.3626 2.28967 14.8133 1.30459 15.1353C0.319506 15.4573 -0.229774 16.537 0.0921936 17.5221C0.111195 17.5979 0.149022 17.6736 0.186848 17.7494L6.22964 32.9035C6.41912 33.3771 6.79792 33.7749 7.29055 33.9642Z" fill="#F78F1E"/>
    <path d="M90.8848 61.9237C90.8658 61.8859 90.8469 61.8479 90.8469 61.81L84.8042 46.6559C84.6147 46.1823 84.2359 45.7845 83.7434 45.5952C83.2698 45.4057 82.7205 45.4247 82.2469 45.633L67.4526 52.3577C66.4865 52.7555 66.0319 53.8731 66.4297 54.8392C66.8275 55.8053 67.945 56.2599 68.9111 55.8621C68.9489 55.8431 68.9869 55.8243 69.0248 55.8053L79.3865 51.0885C74.4046 65.8828 60.6142 75.771 44.7781 75.771C28.1653 75.771 13.6363 64.6705 9.45001 48.7776C9.18487 47.7737 8.14296 47.1674 7.13906 47.4327C6.13515 47.6978 5.52887 48.7397 5.79418 49.7436C10.3973 67.3036 26.4418 79.5594 44.7783 79.5594C62.2624 79.5594 77.4545 68.6484 82.9668 52.3197L87.3236 63.2118C87.6836 64.1968 88.7633 64.7083 89.7482 64.3483C90.7331 63.9885 91.2446 62.9088 90.8848 61.9237Z" fill="#F78F1E"/>
</svg>
