<svg width="91" height="95" viewBox="0 0 91 95" fill="none" xmlns="http://www.w3.org/2000/svg">
    <path d="M33.3667 86.45H21.2333C20.8311 86.45 20.4453 86.6098 20.1609 86.8942C19.8765 87.1787 19.7167 87.5644 19.7167 87.9667C19.7167 88.3689 19.8765 88.7547 20.1609 89.0391C20.4453 89.3236 20.8311 89.4833 21.2333 89.4833H33.3667C33.7689 89.4833 34.1547 89.3236 34.4391 89.0391C34.7236 88.7547 34.8833 88.3689 34.8833 87.9667C34.8833 87.5644 34.7236 87.1787 34.4391 86.8942C34.1547 86.6098 33.7689 86.45 33.3667 86.45Z" fill="#F78F1E"/>
    <path d="M85.6917 28.8167H54.6V5.30833C54.5984 3.90095 54.0387 2.55166 53.0435 1.55649C52.0483 0.561325 50.699 0.00155559 49.2917 0H5.30833C3.90095 0.00155559 2.55166 0.561325 1.55649 1.55649C0.561325 2.55166 0.00155559 3.90095 0 5.30833V88.725C0.00155559 90.1324 0.561325 91.4817 1.55649 92.4768C2.55166 93.472 3.90095 94.0318 5.30833 94.0333H49.2917C50.699 94.0318 52.0483 93.472 53.0435 92.4768C54.0387 91.4817 54.5984 90.1324 54.6 88.725V66.7333H85.6917C87.099 66.7318 88.4483 66.172 89.4435 65.1768C90.4387 64.1817 90.9984 62.8324 91 61.425V34.125C90.9984 32.7176 90.4387 31.3683 89.4435 30.3732C88.4483 29.378 87.099 28.8182 85.6917 28.8167ZM34.4568 3.03333L33.6984 6.06667H20.9016L20.1432 3.03333H34.4568ZM51.5667 88.725C51.5662 89.3282 51.3263 89.9066 50.8998 90.3331C50.4732 90.7597 49.8949 90.9995 49.2917 91H5.30833C4.70512 90.9995 4.12676 90.7597 3.70022 90.3331C3.27368 89.9066 3.03384 89.3282 3.03333 88.725V5.30833C3.03384 4.70512 3.27368 4.12676 3.70022 3.70022C4.12676 3.27368 4.70512 3.03384 5.30833 3.03333H17.0151L18.2455 7.95112C18.3275 8.27924 18.5168 8.57053 18.7834 8.77869C19.05 8.98685 19.3785 9.09995 19.7167 9.1H34.8833C35.2215 9.09995 35.55 8.98685 35.8166 8.77869C36.0832 8.57053 36.2725 8.27924 36.3545 7.95112L37.5849 3.03333H49.2917C49.8949 3.03384 50.4732 3.27368 50.8998 3.70022C51.3263 4.12676 51.5662 4.70512 51.5667 5.30833V88.725ZM54.6 51.5667H59.15V57.6333H54.6V51.5667ZM87.9667 61.425C87.9662 62.0282 87.7263 62.6066 87.2998 63.0331C86.8732 63.4597 86.2949 63.6995 85.6917 63.7H54.6V60.6667H60.6667C61.0689 60.6667 61.4547 60.5069 61.7391 60.2224C62.0235 59.938 62.1833 59.5522 62.1833 59.15V50.05C62.1833 49.6478 62.0235 49.262 61.7391 48.9776C61.4547 48.6931 61.0689 48.5333 60.6667 48.5333H54.6V43.9833H87.9667V61.425ZM87.9667 40.95H54.6V37.9167H87.9667V40.95ZM87.9667 34.8833H54.6V31.85H85.6917C86.2949 31.8505 86.8732 32.0903 87.2998 32.5169C87.7263 32.9434 87.9662 33.5218 87.9667 34.125V34.8833Z" fill="#F78F1E"/>
    <path d="M83.4167 48.5333H69.7667C69.3644 48.5333 68.9787 48.6931 68.6942 48.9775C68.4098 49.262 68.25 49.6477 68.25 50.05C68.25 50.4522 68.4098 50.838 68.6942 51.1224C68.9787 51.4069 69.3644 51.5667 69.7667 51.5667H83.4167C83.8189 51.5667 84.2047 51.4069 84.4891 51.1224C84.7735 50.838 84.9333 50.4522 84.9333 50.05C84.9333 49.6477 84.7735 49.262 84.4891 48.9775C84.2047 48.6931 83.8189 48.5333 83.4167 48.5333Z" fill="#F78F1E"/>
    <path d="M83.4167 53.0834H69.7667C69.3644 53.0834 68.9787 53.2432 68.6942 53.5276C68.4098 53.812 68.25 54.1978 68.25 54.6C68.25 55.0023 68.4098 55.3881 68.6942 55.6725C68.9787 55.9569 69.3644 56.1167 69.7667 56.1167H83.4167C83.8189 56.1167 84.2047 55.9569 84.4891 55.6725C84.7735 55.3881 84.9333 55.0023 84.9333 54.6C84.9333 54.1978 84.7735 53.812 84.4891 53.5276C84.2047 53.2432 83.8189 53.0834 83.4167 53.0834Z" fill="#F78F1E"/>
    <path d="M83.4166 57.6333H77.35C76.9477 57.6333 76.562 57.7931 76.2775 58.0775C75.9931 58.362 75.8333 58.7477 75.8333 59.15C75.8333 59.5522 75.9931 59.938 76.2775 60.2224C76.562 60.5068 76.9477 60.6666 77.35 60.6666H83.4166C83.8189 60.6666 84.2047 60.5068 84.4891 60.2224C84.7735 59.938 84.9333 59.5522 84.9333 59.15C84.9333 58.7477 84.7735 58.362 84.4891 58.0775C84.2047 57.7931 83.8189 57.6333 83.4166 57.6333Z" fill="#F78F1E"/>
    <path d="M27.3 28.8167C23.7004 28.8167 20.1816 29.8841 17.1886 31.8839C14.1956 33.8837 11.8629 36.7262 10.4854 40.0518C9.10786 43.3774 8.74744 47.0368 9.44969 50.5673C10.1519 54.0977 11.8853 57.3407 14.4306 59.886C16.976 62.4313 20.2189 64.1647 23.7493 64.8669C27.2798 65.5692 30.9392 65.2088 34.2648 63.8313C37.5904 62.4537 40.4329 60.121 42.4327 57.128C44.4326 54.1351 45.5 50.6163 45.5 47.0167C45.4946 42.1914 43.5753 37.5653 40.1633 34.1533C36.7514 30.7413 32.1253 28.8221 27.3 28.8167ZM27.3 62.1833C24.3003 62.1833 21.368 61.2938 18.8738 59.6273C16.3797 57.9607 14.4357 55.592 13.2878 52.8207C12.1399 50.0493 11.8395 46.9998 12.4247 44.0578C13.0099 41.1157 14.4544 38.4133 16.5755 36.2922C18.6966 34.1711 21.3991 32.7266 24.3411 32.1414C27.2832 31.5562 30.3327 31.8565 33.104 33.0045C35.8754 34.1524 38.2441 36.0964 39.9106 38.5905C41.5771 41.0846 42.4667 44.017 42.4667 47.0167C42.4621 51.0377 40.8627 54.8927 38.0194 57.7361C35.1761 60.5794 31.321 62.1787 27.3 62.1833Z" fill="#F78F1E"/>
    <path d="M35.3275 41.3942L25.641 51.0808L20.6267 47.3201C20.3049 47.0787 19.9004 46.9751 19.5022 47.032C19.104 47.0889 18.7447 47.3016 18.5034 47.6234C18.262 47.9452 18.1584 48.3497 18.2153 48.7479C18.2721 49.1461 18.4849 49.5054 18.8067 49.7467L24.8734 54.2967C25.1654 54.5158 25.5267 54.6221 25.8909 54.5963C26.255 54.5704 26.5977 54.414 26.8558 54.1559L37.4725 43.5392C37.7569 43.2548 37.9167 42.869 37.9167 42.4667C37.9167 42.0645 37.7569 41.6787 37.4725 41.3942C37.1881 41.1098 36.8023 40.95 36.4 40.95C35.9978 40.95 35.612 41.1098 35.3275 41.3942Z" fill="#F78F1E"/>
</svg>
